<svg width="110" height="50" viewBox="0 0 110 50" fill="none" xmlns="http://www.w3.org/2000/svg">
<mask id="path-1-outside-1" maskUnits="userSpaceOnUse" x="0" y="0" width="110" height="50" fill="black">
<rect fill="white" width="110" height="50"/>
<path fill-rule="evenodd" clip-rule="evenodd" d="M30.0345 2H34.8354C35.0766 2 35.2787 2.186 35.2787 2.408V46.628C35.2778 46.7361 35.2309 46.8396 35.148 46.9162C35.0651 46.9928 34.9529 47.0363 34.8354 47.0375H30.0345C29.9171 47.0363 29.8048 46.9928 29.7219 46.9162C29.639 46.8396 29.5921 46.7361 29.5913 46.628V2.408C29.5913 2.186 29.7917 2 30.0345 2ZM63.0296 38.3855V39.5C63.0296 39.983 62.9498 40.6505 62.7477 41.5055C62.5864 42.3215 62.1024 43.175 61.3364 43.9925C60.5705 44.81 59.4412 45.5525 57.9077 46.1465C56.3759 46.7405 54.2769 47.0375 51.575 47.0375C48.8714 47.0375 46.7741 46.7405 45.2422 46.1465C43.7104 45.5525 42.5794 44.846 41.8135 43.9925C41.0476 43.175 40.5619 42.3215 40.4006 41.468C40.2393 40.613 40.1187 39.983 40.1187 39.5V14.327C40.1187 14.1035 40.3207 13.919 40.5619 13.919H45.3628C45.604 13.919 45.8061 14.1035 45.8061 14.327V37.904C45.8061 38.684 45.9267 39.239 46.0489 39.686C46.1695 40.1315 46.4107 40.577 46.7741 40.9475C47.1375 41.357 47.703 41.69 48.4689 41.951C49.1941 42.2105 50.2028 42.359 51.4544 42.359C52.745 42.359 53.7929 42.209 54.5588 41.951C55.3247 41.69 55.8902 41.357 56.2944 40.985C56.6969 40.6145 56.9788 40.205 57.101 39.7595C57.2216 39.314 57.383 38.9435 57.383 37.8665V14.327C57.383 14.1035 57.585 13.919 57.8262 13.919H62.6271C62.8683 13.919 63.0704 14.1035 63.0704 14.327V38.387H63.0296V38.3855ZM79.3667 13.919H82.5933C82.8769 13.919 83.0773 14.1785 82.9975 14.438L81.9089 18.299C81.8682 18.485 81.6661 18.596 81.5047 18.596H79.2461C78.0353 18.596 77.0673 18.746 76.3013 19.0415C75.5762 19.3385 74.9699 19.673 74.5674 20.081C74.2092 20.4272 73.9466 20.8475 73.8015 21.3065C73.6793 21.752 73.6385 22.1615 73.6385 22.532V46.6655C73.6377 46.7736 73.5908 46.8771 73.5079 46.9537C73.425 47.0303 73.3127 47.0738 73.1953 47.075H68.3553C68.2378 47.0738 68.1256 47.0303 68.0427 46.9537C67.9598 46.8771 67.9128 46.7736 67.912 46.6655V21.4925C67.912 21.047 67.9919 20.378 68.1939 19.5245C68.3553 18.6695 68.8393 17.8535 69.6052 17C70.3711 16.1825 71.5021 15.44 73.0339 14.846C74.5267 14.216 76.6647 13.919 79.3667 13.919ZM13.4156 13.919C17.3267 13.919 20.1916 14.624 22.0477 16.034C23.8631 17.4455 24.7904 19.229 24.7904 21.344V39.5375C24.7904 40.28 24.629 41.0975 24.3471 41.951C24.0652 42.842 23.4997 43.658 22.6523 44.3645C21.8049 45.107 20.6364 45.6995 19.1844 46.22C17.7308 46.703 15.7948 46.9625 13.4563 46.9625C11.077 46.9625 9.18015 46.703 7.72815 46.22C6.27615 45.737 5.10444 45.107 4.25867 44.3645C3.41126 43.622 2.84741 42.8045 2.56385 41.9495C2.28193 41.06 2.12059 40.2425 2.12059 39.5375V36.6425C2.12059 35.0825 2.56548 33.671 3.41126 32.408C4.29941 31.1465 5.50859 30.218 7.12356 29.6975C7.93022 29.438 8.81837 29.1785 9.86622 28.844C10.875 28.5095 11.8821 28.214 12.8501 27.878C13.8181 27.581 14.6264 27.284 15.3516 27.062C16.0784 26.8025 16.5216 26.69 16.683 26.6165C16.8443 26.5415 17.0855 26.4305 17.3674 26.282C17.651 26.1335 17.9329 25.9115 18.2148 25.652C18.4984 25.3535 18.7004 25.0205 18.9009 24.686C19.103 24.314 19.1844 23.8685 19.1844 23.3855V22.235C19.1844 21.827 19.103 21.419 18.9009 20.9735C18.7396 20.5265 18.4169 20.156 17.9736 19.784C17.5304 19.4135 16.9241 19.1165 16.1973 18.893C15.4721 18.671 14.5449 18.56 13.4156 18.56C11.1976 18.56 9.70489 18.968 8.89822 19.8215C8.20238 20.5714 7.79155 21.51 7.72815 22.4945C7.72815 22.718 7.52607 22.8665 7.28489 22.8665H2.44489C2.32744 22.8657 2.21502 22.8225 2.13182 22.7462C2.04861 22.6699 2.00128 22.5666 2 22.4585V21.3815C2 20.342 2.20207 19.376 2.64533 18.4865C3.04948 17.594 3.73393 16.7765 4.70193 16.109C5.63082 15.44 6.80089 14.8835 8.25289 14.513C9.66415 14.141 11.3981 13.919 13.4156 13.919ZM19.1437 30.218C19.1067 30.4085 19.0265 30.5896 18.9083 30.7496C18.7901 30.9096 18.6365 31.0449 18.4576 31.1465C18.0942 31.3685 17.7732 31.4795 17.4489 31.592C16.7644 31.814 16.0376 32.0375 15.2717 32.297C14.5058 32.5565 13.779 32.8175 13.0929 33.002C12.2862 33.263 11.5203 33.485 10.8342 33.7445C10.2847 33.9657 9.76952 34.2532 9.30237 34.5995C8.89822 34.9325 8.53482 35.342 8.21052 35.861C7.88948 36.3815 7.72815 37.013 7.72815 37.7915C7.72815 39.3515 8.13067 40.502 8.93733 41.282C9.744 42.0245 11.2367 42.4325 13.4156 42.4325C15.6335 42.4325 17.167 42.0245 17.9736 41.2445C18.7803 40.4285 19.1844 39.314 19.1844 37.829V30.218H19.1437ZM96.5511 13.919C100.462 13.919 103.327 14.624 105.183 16.034C106.999 17.4455 107.926 19.229 107.926 21.344V39.5375C107.926 40.28 107.765 41.0975 107.483 41.951C107.199 42.842 106.635 43.658 105.788 44.3645C104.94 45.107 103.77 45.6995 102.318 46.22C100.868 46.703 98.9304 46.9625 96.5919 46.9625C94.2126 46.9625 92.3157 46.703 90.8637 46.22C89.4117 45.737 88.24 45.107 87.3942 44.3645C86.5468 43.622 85.983 42.8045 85.6994 41.9495C85.4175 41.06 85.2562 40.2425 85.2562 39.5375V36.6425C85.2562 35.0825 85.6994 33.671 86.5468 32.408C87.435 31.1465 88.6442 30.218 90.2575 29.6975C91.0642 29.438 91.9523 29.1785 93.0018 28.844C94.0089 28.5095 95.0176 28.214 95.9856 27.878C96.9536 27.581 97.7619 27.284 98.4871 27.062C99.2123 26.8025 99.6572 26.69 99.8185 26.6165C99.9799 26.5415 100.221 26.4305 100.503 26.282C100.787 26.1335 101.068 25.9115 101.35 25.652C101.634 25.3535 101.834 25.0205 102.036 24.686C102.239 24.314 102.318 23.8685 102.318 23.3855V22.235C102.318 21.827 102.237 21.419 102.036 20.9735C101.875 20.5265 101.552 20.156 101.108 19.784C100.666 19.4135 100.06 19.1165 99.3345 18.893C98.6077 18.671 97.6805 18.56 96.5511 18.56C94.3316 18.56 92.8405 18.968 92.0338 19.8215C91.3379 20.5714 90.9271 21.51 90.8637 22.4945C90.8637 22.718 90.6616 22.8665 90.4188 22.8665H85.5788C85.4617 22.8653 85.3496 22.822 85.2668 22.7457C85.1839 22.6694 85.1368 22.5663 85.1356 22.4585V21.3815C85.1356 20.342 85.3376 19.376 85.7809 18.4865C86.1834 17.594 86.8695 16.7765 87.8375 16.109C88.7664 15.44 89.9348 14.8835 91.3868 14.513C92.8405 14.141 94.5336 13.919 96.5511 13.919ZM102.279 30.218C102.242 30.4085 102.162 30.5896 102.044 30.7496C101.926 30.9096 101.772 31.0449 101.593 31.1465C101.23 31.3685 100.909 31.4795 100.584 31.592C99.9 31.814 99.1732 32.0375 98.4056 32.297C97.6397 32.5565 96.9145 32.8175 96.2284 33.002C95.4218 33.263 94.6542 33.485 93.9698 33.7445C93.4196 33.9656 92.9039 34.2531 92.4363 34.5995C92.0338 34.9325 91.6704 35.342 91.3477 35.861C91.025 36.3815 90.8637 37.013 90.8637 37.7915C90.8637 39.3515 91.2662 40.502 92.0729 41.282C92.8796 42.0245 94.3723 42.4325 96.5511 42.4325C98.769 42.4325 100.303 42.0245 101.109 41.2445C101.916 40.4285 102.318 39.314 102.318 37.829V30.218H102.279Z"/>
</mask>
<path fill-rule="evenodd" clip-rule="evenodd" d="M30.0345 2H34.8354C35.0766 2 35.2787 2.186 35.2787 2.408V46.628C35.2778 46.7361 35.2309 46.8396 35.148 46.9162C35.0651 46.9928 34.9529 47.0363 34.8354 47.0375H30.0345C29.9171 47.0363 29.8048 46.9928 29.7219 46.9162C29.639 46.8396 29.5921 46.7361 29.5913 46.628V2.408C29.5913 2.186 29.7917 2 30.0345 2ZM63.0296 38.3855V39.5C63.0296 39.983 62.9498 40.6505 62.7477 41.5055C62.5864 42.3215 62.1024 43.175 61.3364 43.9925C60.5705 44.81 59.4412 45.5525 57.9077 46.1465C56.3759 46.7405 54.2769 47.0375 51.575 47.0375C48.8714 47.0375 46.7741 46.7405 45.2422 46.1465C43.7104 45.5525 42.5794 44.846 41.8135 43.9925C41.0476 43.175 40.5619 42.3215 40.4006 41.468C40.2393 40.613 40.1187 39.983 40.1187 39.5V14.327C40.1187 14.1035 40.3207 13.919 40.5619 13.919H45.3628C45.604 13.919 45.8061 14.1035 45.8061 14.327V37.904C45.8061 38.684 45.9267 39.239 46.0489 39.686C46.1695 40.1315 46.4107 40.577 46.7741 40.9475C47.1375 41.357 47.703 41.69 48.4689 41.951C49.1941 42.2105 50.2028 42.359 51.4544 42.359C52.745 42.359 53.7929 42.209 54.5588 41.951C55.3247 41.69 55.8902 41.357 56.2944 40.985C56.6969 40.6145 56.9788 40.205 57.101 39.7595C57.2216 39.314 57.383 38.9435 57.383 37.8665V14.327C57.383 14.1035 57.585 13.919 57.8262 13.919H62.6271C62.8683 13.919 63.0704 14.1035 63.0704 14.327V38.387H63.0296V38.3855ZM79.3667 13.919H82.5933C82.8769 13.919 83.0773 14.1785 82.9975 14.438L81.9089 18.299C81.8682 18.485 81.6661 18.596 81.5047 18.596H79.2461C78.0353 18.596 77.0673 18.746 76.3013 19.0415C75.5762 19.3385 74.9699 19.673 74.5674 20.081C74.2092 20.4272 73.9466 20.8475 73.8015 21.3065C73.6793 21.752 73.6385 22.1615 73.6385 22.532V46.6655C73.6377 46.7736 73.5908 46.8771 73.5079 46.9537C73.425 47.0303 73.3127 47.0738 73.1953 47.075H68.3553C68.2378 47.0738 68.1256 47.0303 68.0427 46.9537C67.9598 46.8771 67.9128 46.7736 67.912 46.6655V21.4925C67.912 21.047 67.9919 20.378 68.1939 19.5245C68.3553 18.6695 68.8393 17.8535 69.6052 17C70.3711 16.1825 71.5021 15.44 73.0339 14.846C74.5267 14.216 76.6647 13.919 79.3667 13.919ZM13.4156 13.919C17.3267 13.919 20.1916 14.624 22.0477 16.034C23.8631 17.4455 24.7904 19.229 24.7904 21.344V39.5375C24.7904 40.28 24.629 41.0975 24.3471 41.951C24.0652 42.842 23.4997 43.658 22.6523 44.3645C21.8049 45.107 20.6364 45.6995 19.1844 46.22C17.7308 46.703 15.7948 46.9625 13.4563 46.9625C11.077 46.9625 9.18015 46.703 7.72815 46.22C6.27615 45.737 5.10444 45.107 4.25867 44.3645C3.41126 43.622 2.84741 42.8045 2.56385 41.9495C2.28193 41.06 2.12059 40.2425 2.12059 39.5375V36.6425C2.12059 35.0825 2.56548 33.671 3.41126 32.408C4.29941 31.1465 5.50859 30.218 7.12356 29.6975C7.93022 29.438 8.81837 29.1785 9.86622 28.844C10.875 28.5095 11.8821 28.214 12.8501 27.878C13.8181 27.581 14.6264 27.284 15.3516 27.062C16.0784 26.8025 16.5216 26.69 16.683 26.6165C16.8443 26.5415 17.0855 26.4305 17.3674 26.282C17.651 26.1335 17.9329 25.9115 18.2148 25.652C18.4984 25.3535 18.7004 25.0205 18.9009 24.686C19.103 24.314 19.1844 23.8685 19.1844 23.3855V22.235C19.1844 21.827 19.103 21.419 18.9009 20.9735C18.7396 20.5265 18.4169 20.156 17.9736 19.784C17.5304 19.4135 16.9241 19.1165 16.1973 18.893C15.4721 18.671 14.5449 18.56 13.4156 18.56C11.1976 18.56 9.70489 18.968 8.89822 19.8215C8.20238 20.5714 7.79155 21.51 7.72815 22.4945C7.72815 22.718 7.52607 22.8665 7.28489 22.8665H2.44489C2.32744 22.8657 2.21502 22.8225 2.13182 22.7462C2.04861 22.6699 2.00128 22.5666 2 22.4585V21.3815C2 20.342 2.20207 19.376 2.64533 18.4865C3.04948 17.594 3.73393 16.7765 4.70193 16.109C5.63082 15.44 6.80089 14.8835 8.25289 14.513C9.66415 14.141 11.3981 13.919 13.4156 13.919ZM19.1437 30.218C19.1067 30.4085 19.0265 30.5896 18.9083 30.7496C18.7901 30.9096 18.6365 31.0449 18.4576 31.1465C18.0942 31.3685 17.7732 31.4795 17.4489 31.592C16.7644 31.814 16.0376 32.0375 15.2717 32.297C14.5058 32.5565 13.779 32.8175 13.0929 33.002C12.2862 33.263 11.5203 33.485 10.8342 33.7445C10.2847 33.9657 9.76952 34.2532 9.30237 34.5995C8.89822 34.9325 8.53482 35.342 8.21052 35.861C7.88948 36.3815 7.72815 37.013 7.72815 37.7915C7.72815 39.3515 8.13067 40.502 8.93733 41.282C9.744 42.0245 11.2367 42.4325 13.4156 42.4325C15.6335 42.4325 17.167 42.0245 17.9736 41.2445C18.7803 40.4285 19.1844 39.314 19.1844 37.829V30.218H19.1437ZM96.5511 13.919C100.462 13.919 103.327 14.624 105.183 16.034C106.999 17.4455 107.926 19.229 107.926 21.344V39.5375C107.926 40.28 107.765 41.0975 107.483 41.951C107.199 42.842 106.635 43.658 105.788 44.3645C104.94 45.107 103.77 45.6995 102.318 46.22C100.868 46.703 98.9304 46.9625 96.5919 46.9625C94.2126 46.9625 92.3157 46.703 90.8637 46.22C89.4117 45.737 88.24 45.107 87.3942 44.3645C86.5468 43.622 85.983 42.8045 85.6994 41.9495C85.4175 41.06 85.2562 40.2425 85.2562 39.5375V36.6425C85.2562 35.0825 85.6994 33.671 86.5468 32.408C87.435 31.1465 88.6442 30.218 90.2575 29.6975C91.0642 29.438 91.9523 29.1785 93.0018 28.844C94.0089 28.5095 95.0176 28.214 95.9856 27.878C96.9536 27.581 97.7619 27.284 98.4871 27.062C99.2123 26.8025 99.6572 26.69 99.8185 26.6165C99.9799 26.5415 100.221 26.4305 100.503 26.282C100.787 26.1335 101.068 25.9115 101.35 25.652C101.634 25.3535 101.834 25.0205 102.036 24.686C102.239 24.314 102.318 23.8685 102.318 23.3855V22.235C102.318 21.827 102.237 21.419 102.036 20.9735C101.875 20.5265 101.552 20.156 101.108 19.784C100.666 19.4135 100.06 19.1165 99.3345 18.893C98.6077 18.671 97.6805 18.56 96.5511 18.56C94.3316 18.56 92.8405 18.968 92.0338 19.8215C91.3379 20.5714 90.9271 21.51 90.8637 22.4945C90.8637 22.718 90.6616 22.8665 90.4188 22.8665H85.5788C85.4617 22.8653 85.3496 22.822 85.2668 22.7457C85.1839 22.6694 85.1368 22.5663 85.1356 22.4585V21.3815C85.1356 20.342 85.3376 19.376 85.7809 18.4865C86.1834 17.594 86.8695 16.7765 87.8375 16.109C88.7664 15.44 89.9348 14.8835 91.3868 14.513C92.8405 14.141 94.5336 13.919 96.5511 13.919ZM102.279 30.218C102.242 30.4085 102.162 30.5896 102.044 30.7496C101.926 30.9096 101.772 31.0449 101.593 31.1465C101.23 31.3685 100.909 31.4795 100.584 31.592C99.9 31.814 99.1732 32.0375 98.4056 32.297C97.6397 32.5565 96.9145 32.8175 96.2284 33.002C95.4218 33.263 94.6542 33.485 93.9698 33.7445C93.4196 33.9656 92.9039 34.2531 92.4363 34.5995C92.0338 34.9325 91.6704 35.342 91.3477 35.861C91.025 36.3815 90.8637 37.013 90.8637 37.7915C90.8637 39.3515 91.2662 40.502 92.0729 41.282C92.8796 42.0245 94.3723 42.4325 96.5511 42.4325C98.769 42.4325 100.303 42.0245 101.109 41.2445C101.916 40.4285 102.318 39.314 102.318 37.829V30.218H102.279Z" fill="white"/>
<path fill-rule="evenodd" clip-rule="evenodd" d="M30.0345 2H34.8354C35.0766 2 35.2787 2.186 35.2787 2.408V46.628C35.2778 46.7361 35.2309 46.8396 35.148 46.9162C35.0651 46.9928 34.9529 47.0363 34.8354 47.0375H30.0345C29.9171 47.0363 29.8048 46.9928 29.7219 46.9162C29.639 46.8396 29.5921 46.7361 29.5913 46.628V2.408C29.5913 2.186 29.7917 2 30.0345 2ZM63.0296 38.3855V39.5C63.0296 39.983 62.9498 40.6505 62.7477 41.5055C62.5864 42.3215 62.1024 43.175 61.3364 43.9925C60.5705 44.81 59.4412 45.5525 57.9077 46.1465C56.3759 46.7405 54.2769 47.0375 51.575 47.0375C48.8714 47.0375 46.7741 46.7405 45.2422 46.1465C43.7104 45.5525 42.5794 44.846 41.8135 43.9925C41.0476 43.175 40.5619 42.3215 40.4006 41.468C40.2393 40.613 40.1187 39.983 40.1187 39.5V14.327C40.1187 14.1035 40.3207 13.919 40.5619 13.919H45.3628C45.604 13.919 45.8061 14.1035 45.8061 14.327V37.904C45.8061 38.684 45.9267 39.239 46.0489 39.686C46.1695 40.1315 46.4107 40.577 46.7741 40.9475C47.1375 41.357 47.703 41.69 48.4689 41.951C49.1941 42.2105 50.2028 42.359 51.4544 42.359C52.745 42.359 53.7929 42.209 54.5588 41.951C55.3247 41.69 55.8902 41.357 56.2944 40.985C56.6969 40.6145 56.9788 40.205 57.101 39.7595C57.2216 39.314 57.383 38.9435 57.383 37.8665V14.327C57.383 14.1035 57.585 13.919 57.8262 13.919H62.6271C62.8683 13.919 63.0704 14.1035 63.0704 14.327V38.387H63.0296V38.3855ZM79.3667 13.919H82.5933C82.8769 13.919 83.0773 14.1785 82.9975 14.438L81.9089 18.299C81.8682 18.485 81.6661 18.596 81.5047 18.596H79.2461C78.0353 18.596 77.0673 18.746 76.3013 19.0415C75.5762 19.3385 74.9699 19.673 74.5674 20.081C74.2092 20.4272 73.9466 20.8475 73.8015 21.3065C73.6793 21.752 73.6385 22.1615 73.6385 22.532V46.6655C73.6377 46.7736 73.5908 46.8771 73.5079 46.9537C73.425 47.0303 73.3127 47.0738 73.1953 47.075H68.3553C68.2378 47.0738 68.1256 47.0303 68.0427 46.9537C67.9598 46.8771 67.9128 46.7736 67.912 46.6655V21.4925C67.912 21.047 67.9919 20.378 68.1939 19.5245C68.3553 18.6695 68.8393 17.8535 69.6052 17C70.3711 16.1825 71.5021 15.44 73.0339 14.846C74.5267 14.216 76.6647 13.919 79.3667 13.919ZM13.4156 13.919C17.3267 13.919 20.1916 14.624 22.0477 16.034C23.8631 17.4455 24.7904 19.229 24.7904 21.344V39.5375C24.7904 40.28 24.629 41.0975 24.3471 41.951C24.0652 42.842 23.4997 43.658 22.6523 44.3645C21.8049 45.107 20.6364 45.6995 19.1844 46.22C17.7308 46.703 15.7948 46.9625 13.4563 46.9625C11.077 46.9625 9.18015 46.703 7.72815 46.22C6.27615 45.737 5.10444 45.107 4.25867 44.3645C3.41126 43.622 2.84741 42.8045 2.56385 41.9495C2.28193 41.06 2.12059 40.2425 2.12059 39.5375V36.6425C2.12059 35.0825 2.56548 33.671 3.41126 32.408C4.29941 31.1465 5.50859 30.218 7.12356 29.6975C7.93022 29.438 8.81837 29.1785 9.86622 28.844C10.875 28.5095 11.8821 28.214 12.8501 27.878C13.8181 27.581 14.6264 27.284 15.3516 27.062C16.0784 26.8025 16.5216 26.69 16.683 26.6165C16.8443 26.5415 17.0855 26.4305 17.3674 26.282C17.651 26.1335 17.9329 25.9115 18.2148 25.652C18.4984 25.3535 18.7004 25.0205 18.9009 24.686C19.103 24.314 19.1844 23.8685 19.1844 23.3855V22.235C19.1844 21.827 19.103 21.419 18.9009 20.9735C18.7396 20.5265 18.4169 20.156 17.9736 19.784C17.5304 19.4135 16.9241 19.1165 16.1973 18.893C15.4721 18.671 14.5449 18.56 13.4156 18.56C11.1976 18.56 9.70489 18.968 8.89822 19.8215C8.20238 20.5714 7.79155 21.51 7.72815 22.4945C7.72815 22.718 7.52607 22.8665 7.28489 22.8665H2.44489C2.32744 22.8657 2.21502 22.8225 2.13182 22.7462C2.04861 22.6699 2.00128 22.5666 2 22.4585V21.3815C2 20.342 2.20207 19.376 2.64533 18.4865C3.04948 17.594 3.73393 16.7765 4.70193 16.109C5.63082 15.44 6.80089 14.8835 8.25289 14.513C9.66415 14.141 11.3981 13.919 13.4156 13.919ZM19.1437 30.218C19.1067 30.4085 19.0265 30.5896 18.9083 30.7496C18.7901 30.9096 18.6365 31.0449 18.4576 31.1465C18.0942 31.3685 17.7732 31.4795 17.4489 31.592C16.7644 31.814 16.0376 32.0375 15.2717 32.297C14.5058 32.5565 13.779 32.8175 13.0929 33.002C12.2862 33.263 11.5203 33.485 10.8342 33.7445C10.2847 33.9657 9.76952 34.2532 9.30237 34.5995C8.89822 34.9325 8.53482 35.342 8.21052 35.861C7.88948 36.3815 7.72815 37.013 7.72815 37.7915C7.72815 39.3515 8.13067 40.502 8.93733 41.282C9.744 42.0245 11.2367 42.4325 13.4156 42.4325C15.6335 42.4325 17.167 42.0245 17.9736 41.2445C18.7803 40.4285 19.1844 39.314 19.1844 37.829V30.218H19.1437ZM96.5511 13.919C100.462 13.919 103.327 14.624 105.183 16.034C106.999 17.4455 107.926 19.229 107.926 21.344V39.5375C107.926 40.28 107.765 41.0975 107.483 41.951C107.199 42.842 106.635 43.658 105.788 44.3645C104.94 45.107 103.77 45.6995 102.318 46.22C100.868 46.703 98.9304 46.9625 96.5919 46.9625C94.2126 46.9625 92.3157 46.703 90.8637 46.22C89.4117 45.737 88.24 45.107 87.3942 44.3645C86.5468 43.622 85.983 42.8045 85.6994 41.9495C85.4175 41.06 85.2562 40.2425 85.2562 39.5375V36.6425C85.2562 35.0825 85.6994 33.671 86.5468 32.408C87.435 31.1465 88.6442 30.218 90.2575 29.6975C91.0642 29.438 91.9523 29.1785 93.0018 28.844C94.0089 28.5095 95.0176 28.214 95.9856 27.878C96.9536 27.581 97.7619 27.284 98.4871 27.062C99.2123 26.8025 99.6572 26.69 99.8185 26.6165C99.9799 26.5415 100.221 26.4305 100.503 26.282C100.787 26.1335 101.068 25.9115 101.35 25.652C101.634 25.3535 101.834 25.0205 102.036 24.686C102.239 24.314 102.318 23.8685 102.318 23.3855V22.235C102.318 21.827 102.237 21.419 102.036 20.9735C101.875 20.5265 101.552 20.156 101.108 19.784C100.666 19.4135 100.06 19.1165 99.3345 18.893C98.6077 18.671 97.6805 18.56 96.5511 18.56C94.3316 18.56 92.8405 18.968 92.0338 19.8215C91.3379 20.5714 90.9271 21.51 90.8637 22.4945C90.8637 22.718 90.6616 22.8665 90.4188 22.8665H85.5788C85.4617 22.8653 85.3496 22.822 85.2668 22.7457C85.1839 22.6694 85.1368 22.5663 85.1356 22.4585V21.3815C85.1356 20.342 85.3376 19.376 85.7809 18.4865C86.1834 17.594 86.8695 16.7765 87.8375 16.109C88.7664 15.44 89.9348 14.8835 91.3868 14.513C92.8405 14.141 94.5336 13.919 96.5511 13.919ZM102.279 30.218C102.242 30.4085 102.162 30.5896 102.044 30.7496C101.926 30.9096 101.772 31.0449 101.593 31.1465C101.23 31.3685 100.909 31.4795 100.584 31.592C99.9 31.814 99.1732 32.0375 98.4056 32.297C97.6397 32.5565 96.9145 32.8175 96.2284 33.002C95.4218 33.263 94.6542 33.485 93.9698 33.7445C93.4196 33.9656 92.9039 34.2531 92.4363 34.5995C92.0338 34.9325 91.6704 35.342 91.3477 35.861C91.025 36.3815 90.8637 37.013 90.8637 37.7915C90.8637 39.3515 91.2662 40.502 92.0729 41.282C92.8796 42.0245 94.3723 42.4325 96.5511 42.4325C98.769 42.4325 100.303 42.0245 101.109 41.2445C101.916 40.4285 102.318 39.314 102.318 37.829V30.218H102.279Z" stroke="#1C1814" stroke-width="4" mask="url(#path-1-outside-1)"/>
</svg>
